<svg xmlns="http://www.w3.org/2000/svg" xmlns:xlink="http://www.w3.org/1999/xlink" width="500" height="500" viewBox="0 0 500 500">
  <metadata><?xpacket begin="﻿" id="W5M0MpCehiHzreSzNTczkc9d"?>
<x:xmpmeta xmlns:x="adobe:ns:meta/" x:xmptk="Adobe XMP Core 5.6-c138 79.159824, 2016/09/14-01:09:01        ">
   <rdf:RDF xmlns:rdf="http://www.w3.org/1999/02/22-rdf-syntax-ns#">
      <rdf:Description rdf:about=""/>
   </rdf:RDF>
</x:xmpmeta>
                                                                                                    
                                                                                                    
                                                                                                    
                                                                                                    
                                                                                                    
                                                                                                    
                                                                                                    
                                                                                                    
                                                                                                    
                                                                                                    
                                                                                                    
                                                                                                    
                                                                                                    
                                                                                                    
                                                                                                    
                                                                                                    
                                                                                                    
                                                                                                    
                                                                                                    
                                                                                                    
                           
<?xpacket end="w"?></metadata>
<defs>
    <style>
      .cls-1 {
        fill-rule: evenodd;
        filter: url(#filter);
      }
    </style>
    <filter id="filter" x="100.25" y="162.406" width="301.312" height="176.969" filterUnits="userSpaceOnUse">
      <feFlood result="flood" flood-color="#fff"/>
      <feComposite result="composite" operator="in" in2="SourceGraphic"/>
      <feBlend result="blend" in2="SourceGraphic"/>
    </filter>
  </defs>
  <path id="b_l_copy" data-name="b+l copy" class="cls-1" d="M155.867,318.535a33.683,33.683,0,0,0,24.544-10.113A33.276,33.276,0,0,0,190.525,284a34.626,34.626,0,0,0-58.832-24.79,33.7,33.7,0,0,0-10.36,23.927v1.6a34.539,34.539,0,0,0,34.534,33.794h0Zm2.344-89.912A55.7,55.7,0,0,1,211.245,280.3a55.015,55.015,0,0,1-3.33,22.817A54.271,54.271,0,0,1,196.2,321.865q-16.4,17.515-40.331,17.514a53.578,53.578,0,0,1-34.534-12.21v10.237a1.417,1.417,0,0,1-1.6,1.6H101.846a1.417,1.417,0,0,1-1.6-1.6V164a1.418,1.418,0,0,1,1.6-1.6H119.73a1.419,1.419,0,0,1,1.6,1.6V240.71a53.591,53.591,0,0,1,36.878-12.087h0Zm175.356,11.84a1.419,1.419,0,0,1,1.6,1.6V259.7a1.417,1.417,0,0,1-1.6,1.6H302.609v30.958a1.417,1.417,0,0,1-1.6,1.6H283.369a1.417,1.417,0,0,1-1.6-1.6V261.307H250.808a1.416,1.416,0,0,1-1.6-1.6V242.067a1.417,1.417,0,0,1,1.6-1.6h30.957V209.506a1.417,1.417,0,0,1,1.6-1.6h17.637a1.417,1.417,0,0,1,1.6,1.6v30.957h30.958Zm48.376,98.916a1.416,1.416,0,0,1-1.6-1.6V164a1.417,1.417,0,0,1,1.6-1.6H399.95a1.418,1.418,0,0,1,1.6,1.6V337.776a1.417,1.417,0,0,1-1.6,1.6H381.943Z"/>
</svg>
